<?xml version="1.0" standalone="no"?>
<!DOCTYPE svg PUBLIC "-//W3C//DTD SVG 20010904//EN"
 "http://www.w3.org/TR/2001/REC-SVG-20010904/DTD/svg10.dtd">
<svg version="1.0" xmlns="http://www.w3.org/2000/svg"
 width="288.000000pt" height="288.000000pt" viewBox="0 0 288.000000 288.000000"
 preserveAspectRatio="xMidYMid meet">

<g transform="translate(0.000000,288.000000) scale(0.100000,-0.100000)"
fill="#000000" stroke="none">
<path d="M1295 2870 c-634 -69 -1145 -538 -1266 -1162 -10 -54 -19 -113 -19
-131 l0 -33 88 43 c374 184 761 298 1182 349 194 24 601 24 782 1 236 -31 463
-85 696 -164 l84 -29 -239 0 c-420 0 -720 -63 -1018 -212 -431 -215 -757 -659
-875 -1189 -31 -144 -35 -135 78 -192 111 -56 232 -100 347 -127 66 -16 120
-19 310 -19 220 0 235 1 338 28 281 73 508 205 698 404 146 154 253 329 322
529 60 173 72 254 72 479 0 187 -2 206 -27 298 -78 279 -205 496 -412 702
-218 217 -456 350 -724 404 -115 24 -305 33 -417 21z"/>
</g>
</svg>
