<?xml version="1.0" encoding="UTF-8" standalone="no"?>
<svg
   xmlns:dc="http://purl.org/dc/elements/1.1/"
   xmlns:cc="http://creativecommons.org/ns#"
   xmlns:rdf="http://www.w3.org/1999/02/22-rdf-syntax-ns#"
   xmlns:svg="http://www.w3.org/2000/svg"
   xmlns="http://www.w3.org/2000/svg"
   xmlns:sodipodi="http://sodipodi.sourceforge.net/DTD/sodipodi-0.dtd"
   xmlns:inkscape="http://www.inkscape.org/namespaces/inkscape"
   viewBox="0 0 50 50"
   id="svg2"
   version="1.1"
   inkscape:version="0.91 r13725"
   sodipodi:docname="read.svg">
  <metadata
     id="metadata10">
    <rdf:RDF>
      <cc:Work
         rdf:about="">
        <dc:format>image/svg+xml</dc:format>
        <dc:type
           rdf:resource="http://purl.org/dc/dcmitype/StillImage" />
      </cc:Work>
    </rdf:RDF>
  </metadata>
  <defs
     id="defs8" />
  <sodipodi:namedview
     pagecolor="#ffffff"
     bordercolor="#666666"
     borderopacity="1"
     objecttolerance="10"
     gridtolerance="10"
     guidetolerance="10"
     inkscape:pageopacity="0"
     inkscape:pageshadow="2"
     inkscape:window-width="1366"
     inkscape:window-height="679"
     id="namedview6"
     showgrid="false"
     inkscape:zoom="4.72"
     inkscape:cx="-8.3686441"
     inkscape:cy="25"
     inkscape:window-x="0"
     inkscape:window-y="27"
     inkscape:window-maximized="1"
     inkscape:current-layer="svg2" />
  <path
     style="line-height:normal;text-indent:0;text-align:start;text-decoration-line:none;text-decoration-style:solid;text-decoration-color:#000;text-transform:none;block-progression:tb;isolation:auto;mix-blend-mode:normal;fill:#ffffff;fill-opacity:1"
     d="M 25 9 C 18.18208 9 12.014509 10.704877 7.4824219 13.539062 C 2.950335 16.37325 1.1842379e-15 20.420281 0 25 C 0 29.579719 2.950335 33.62675 7.4824219 36.460938 C 12.014509 39.295124 18.18208 41 25 41 C 31.81792 41 37.985491 39.295124 42.517578 36.460938 C 47.049665 33.62675 50 29.579719 50 25 C 50 20.465041 47.050143 16.424446 42.519531 13.578125 C 37.988919 10.731804 31.820426 9 25 9 z M 25 11 C 31.479574 11 37.31069 12.667805 41.455078 15.271484 C 45.599466 17.875163 48 21.334959 48 25 C 48 28.720281 45.599944 32.172859 41.457031 34.763672 C 37.314118 37.354485 31.48208 39 25 39 C 18.51792 39 12.685882 37.354485 8.5429688 34.763672 C 4.4000555 32.172859 2 28.720281 2 25 C 2 21.279719 4.4000555 17.827141 8.5429688 15.236328 C 12.685882 12.645515 18.51792 11 25 11 z M 22.099609 14.5 L 21.5 20.400391 C 21.051 22.291391 19.915188 23.09375 18.742188 23.09375 C 16.254188 23.09375 13.603 19.485 17 15 C 9.9 16.6 5.1 20.600781 5 24.800781 C 5.1 26.700781 6.2 28.700391 8 30.400391 C 9.3 31.600391 11 33.2 13 34 C 11.006 31.099 12.554422 29.074219 14.732422 29.074219 C 16.158422 29.074219 17.853 29.943 19 32 C 19.366 30.604 20.028969 29.992187 20.792969 29.992188 C 22.326969 29.992188 24.265 32.462 25 36 C 25.734 32.461 27.672031 29.991187 29.207031 29.992188 C 29.971031 29.992188 30.635 30.605 31 32 C 32.147 29.942 33.842578 29.074219 35.267578 29.074219 C 37.444578 29.074219 38.994 31.099 37 34 C 39 33.2 40.7 31.6 42 30.5 C 43.8 28.8 44.9 26.800391 45 24.900391 C 44.9 20.700391 40.1 16.7 33 15 C 36.399 19.486 33.744859 23.048828 31.255859 23.048828 C 30.083859 23.048828 28.948 22.257391 28.5 20.400391 L 27.900391 14.5 L 26.5 16 L 25 16 L 23.5 16 L 22.099609 14.5 z M 23.753906 18 L 25 18 L 26.246094 18 L 26.511719 20.601562 L 26.525391 20.736328 L 26.556641 20.869141 C 27.300641 23.950141 29.472812 25.048828 31.257812 25.048828 C 33.187813 25.048828 35.03675 23.835937 35.96875 21.960938 C 36.53375 20.823937 36.726547 19.570344 36.560547 18.277344 C 40.396547 19.954344 42.890047 22.417141 42.998047 24.869141 C 42.900047 26.182141 42.054063 27.684766 40.664062 29.009766 C 40.507063 29.142766 40.345734 29.283734 40.177734 29.427734 C 40.003734 29.577734 39.821766 29.734578 39.634766 29.892578 C 39.574766 29.735578 39.506734 29.581641 39.427734 29.431641 C 38.650734 27.954641 37.096531 27.072266 35.269531 27.072266 C 33.801531 27.072266 32.386359 27.631719 31.193359 28.636719 C 30.433359 28.085719 29.652031 27.990234 29.207031 27.990234 C 27.660031 27.990234 26.168 29.015422 25 30.732422 C 23.832 29.015422 22.339969 27.990234 20.792969 27.990234 C 20.347969 27.990234 19.566641 28.085719 18.806641 28.636719 C 17.613641 27.631719 16.199422 27.072266 14.732422 27.072266 C 12.905422 27.072266 11.351219 27.954641 10.574219 29.431641 C 10.500219 29.571641 10.435906 29.713375 10.378906 29.859375 C 10.058906 29.576375 9.7528438 29.295297 9.4648438 29.029297 L 9.3730469 28.943359 C 7.9610469 27.609359 7.0999531 26.093531 7.0019531 24.769531 C 7.1109531 22.340531 9.6453125 19.867422 13.445312 18.232422 C 13.267312 19.552422 13.459109 20.835047 14.037109 21.998047 C 14.971109 23.877047 16.817234 25.091797 18.740234 25.091797 C 20.529234 25.091797 22.705312 23.978375 23.445312 20.859375 L 23.474609 20.732422 L 23.488281 20.601562 L 23.753906 18 z"
     font-weight="400"
     font-family="sans-serif"
     white-space="normal"
     overflow="visible"
     id="path4" />
</svg>
